{"title":"Lake.Placid.vs.Anaconda.2015.HDRip.x264-MenaceIISociety","uid":12282892,"size":1082125680,"categoryP":"video","categoryS":"movies","magnet":"?xt=urn:btih:a5c0938098edb98d54d7db6bb94ce635158d48ac&amp;dn=Lake.Placid.vs.Anaconda.2015.HDRip.x264-MenaceIISociety&amp;tr=udp%3A%2F%2Ftracker.openbittorrent.com%3A80&amp;tr=udp%3A%2F%2Fopen.demonii.com%3A1337&amp;tr=udp%3A%2F%2Ftracker.coppersurfer.tk%3A6969&amp;tr=udp%3A%2F%2Fexodus.desync.com%3A6969","seeders":0,"leechers":0,"uploader":"TvTeam","files":4,"time":1440437934,"description":"------------------------------------------------------------------------\n\n &lt;a href=&quot; https://www.torrenting.com&quot; rel=&quot;nofollow&quot; target=&quot;_NEW&quot;&gt; https://www.torrenting.com&lt;/a&gt;\n\nSign up is OPEN - for time being. Come and have fun\n\n.......................................................................................................................[center][img]http://s27.postimg.org/6r2ybtoar/aed131907d1a3f3fce1d3484d511495f.jpg[/img]\n\nLake.Placid.vs.Anaconda.2015.HDRip.x264-MenaceIISociety &lt;a href=&quot;\nhttp://www.imdb.com/title/tt4497416/&quot; rel=&quot;nofollow&quot; target=&quot;_NEW&quot;&gt;\nhttp://www.imdb.com/title/tt4497416/&lt;/a&gt;\n\nSource: Ozero.straha.Anakonda.2015.P.WEBDL.720p [THANKS]\n\nGeneral\nComplete name                            : Lake.Placid.vs.Anaconda.2015.HDRip.x264-MenaceIISociety.mp4\nFormat                                   : MPEG-4\nFormat profile                           : Base Media\nCodec ID                                 : isom\nFile size                                : 1 015 MiB\nDuration                                 : 1h 31mn\nOverall bit rate mode                    : Variable\nOverall bit rate                         : 1 550 Kbps\nEncoded date                             : UTC 2015-08-24 14:13:42\nTagged date                              : UTC 2015-08-24 14:13:42\n\nVideo\nID                                       : 1\nFormat                                   : AVC\nFormat/Info                              : Advanced Video Codec\nFormat profile                           : &lt;a class=&quot;__cf_email__&quot; href=&quot;/cdn-cgi/l/email-protection&quot; data-cfemail=&quot;470f2e202f070b736976&quot;&gt;[email&amp;#160;protected]&lt;/a&gt;&lt;script data-cfhash='f9e31' type=&quot;text/javascript&quot;&gt;\n/* &lt;![CDATA[ */!function(){try{var t=&quot;currentScript&quot;in document?document.currentScript:function(){for(var t=document.getElementsByTagName(&quot;script&quot;),e=t.length;e--;)if(t[e].getAttribute(&quot;data-cfhash&quot;))return t[e]}();if(t&amp;&amp;t.previousSibling){var e,r,n,i,c=t.previousSibling,a=c.getAttribute(&quot;data-cfemail&quot;);if(a){for(e=&quot;&quot;,r=parseInt(a.substr(0,2),16),n=2;a.length-n;n+=2)i=parseInt(a.substr(n,2),16)^r,e+=String.fromCharCode(i);e=document.createTextNode(e),c.parentNode.replaceChild(e,c)}t.parentNode.removeChild(t);}}catch(u){}}()/* ]]&gt; */&lt;/script&gt;\nFormat settings, CABAC                   : Yes\nFormat settings, ReFrames                : 3 frames\nCodec ID                                 : avc1\nCodec ID/Info                            : Advanced Video Coding\nDuration                                 : 1h 31mn\nBit rate mode                            : Variable\nBit rate                                 : 1 389 Kbps\nMaximum bit rate                         : 40.0 Mbps\nWidth                                    : 720 pixels\nHeight                                   : 400 pixels\nDisplay aspect ratio                     : 16:9\nFrame rate mode                          : Constant\nFrame rate                               : 23.976 fps\nColor space                              : YUV\nChroma subsampling                       : 4:2:0\nBit depth                                : 8 bits\nScan type                                : Progressive\nBits/(Pixel*Frame)                       : 0.201\nStream size                              : 910 MiB (90%)\nWriting library                          : x264 core 148 r2579 73ae2d1\n\nAudio\nID                                       : 2\nFormat                                   : AAC\nFormat/Info                              : Advanced Audio Codec\nFormat profile                           : LC\nCodec ID                                 : 40\nDuration                                 : 1h 31mn\nBit rate mode                            : Variable\nBit rate                                 : 157 Kbps\nMaximum bit rate                         : 253 Kbps\nChannel(s)                               : 2 channels\nChannel positions                        : Front: L R\nSampling rate                            : 48.0 KHz\nCompression mode                         : Lossy\nStream size                              : 103 MiB (10%)\nLanguage                                 : English\nEncoded date                             : UTC 2015-08-24 14:14:18\nTagged date                              : UTC 2015-08-24 14:14:26 \n\n[img]http://s13.postimg.org/405dzyjnr/vlcsnap_2015_08_24_16h18m51s719.jpg[/img]\n[img]http://s13.postimg.org/41fbtdlhj/vlcsnap_2015_08_24_16h19m13s521.jpg[/img]\n[img]http://s13.postimg.org/naceje5mv/vlcsnap_2015_08_24_16h19m27s624.jpg[/img]\n[img]http://s13.postimg.org/oa2pf3ksn/vlcsnap_2015_08_24_16h19m33s882.jpg[/img]\n[img]http://s13.postimg.org/a4wwdabrb/vlcsnap_2015_08_24_16h19m43s491.jpg[/img] \n \n[img]http://s17.postimg.org/r1iiyw8yn/Untitled_1.png[/img][/center]","torrent":{"xt":"urn:btih:a5c0938098edb98d54d7db6bb94ce635158d48ac","amp;dn":"Lake.Placid.vs.Anaconda.2015.HDRip.x264-MenaceIISociety","amp;tr":["udp%3A%2F%2Ftracker.openbittorrent.com%3A80","udp%3A%2F%2Fopen.demonii.com%3A1337","udp%3A%2F%2Ftracker.coppersurfer.tk%3A6969","udp%3A%2F%2Fexodus.desync.com%3A6969"],"infoHash":"a5c0938098edb98d54d7db6bb94ce635158d48ac","infoHashBuffer":{"type":"Buffer","data":[165,192,147,128,152,237,185,141,84,215,219,107,185,76,230,53,21,141,72,172]},"announce":[],"urlList":[]}}